<svg xmlns="http://www.w3.org/2000/svg" width="156.345" height="30" viewBox="0 0 156.345 30">
  <g id="Group_35" data-name="Group 35" transform="translate(-356.503 -231.144)">
    <path id="Path_43" data-name="Path 43" d="M378.484,256.2a.832.832,0,0,1-.915-.914V233.97c0-1.954-.872-2.826-2.825-2.826h-5.028v4.488h1.662a.813.813,0,0,1,.914.913v3.741c0,.706.041,1.246.041,1.246h-.083s-1.5-2.575-6.108-2.575c-5.609,0-9.64,4.362-9.64,11.093,0,6.566,3.7,11.095,9.432,11.095a7.284,7.284,0,0,0,6.606-3.449h.084v.79c0,1.247.706,2.161,2.617,2.161H380.1V256.2Zm-11.385.5c-3.117,0-5.236-2.617-5.236-6.648,0-4.2,2.41-6.564,5.319-6.564,3.532,0,5.236,3.24,5.236,6.523C372.418,254.7,369.842,256.7,367.1,256.7Z" transform="translate(0 0)" fill="#00195b"/>
    <path id="Path_44" data-name="Path 44" d="M395.9,247.145c0-5.61-3.324-10.055-9.39-10.055-6.358,0-10.762,4.57-10.762,11.093,0,6.025,4.363,11.094,11.385,11.094a12.886,12.886,0,0,0,8.518-3.2l-2.2-3.657a9.63,9.63,0,0,1-5.941,2.369,6.1,6.1,0,0,1-6.358-5.693H395.78S395.9,247.768,395.9,247.145Zm-14.584-1.7a5.077,5.077,0,0,1,5.194-4.279,4.113,4.113,0,0,1,3.989,4.279Z" transform="translate(6.042 1.866)" fill="#00195b"/>
    <path id="Path_45" data-name="Path 45" d="M399.285,247.941l-3.491-5.278c-.415-.623-.748-.706-1.62-.706h-1.537v-4.488h3.7a3.279,3.279,0,0,1,3.449,1.994l2.077,3.491c.292.54.665,1.37.665,1.37h.084s.373-.83.665-1.37l2.077-3.491a3.249,3.249,0,0,1,3.449-1.994h3.657v4.488h-1.5c-.872,0-1.2.083-1.62.706l-3.532,5.278,6.939,10.72h-5.859l-3.7-5.9a7.248,7.248,0,0,1-.581-1.122h-.084s-.332.665-.623,1.122l-3.657,5.9h-5.859Z" transform="translate(11.264 1.985)" fill="#00195b"/>
    <path id="Path_46" data-name="Path 46" d="M421.128,236.545a.813.813,0,0,0-.914-.913h-1.662v-4.488h5.028c1.952,0,2.825.872,2.825,2.826v21.315a.832.832,0,0,0,.914.914h1.62v4.446h-4.986c-1.994,0-2.825-.832-2.825-2.826Z" transform="translate(19.476 0)" fill="#00195b"/>
    <path id="Path_47" data-name="Path 47" d="M447.148,254.334a.832.832,0,0,1-.914-.915v-7.9c0-4.737-2.077-8.434-9.142-8.434-2.2,0-7.769.415-7.769,4.362V243.7h4.9v-1.122c0-1.163,1.87-1.412,2.826-1.412,2.7,0,3.9,1.122,3.9,4.154v.167h-.665c-3.448,0-12.59.54-12.59,7.188,0,4.239,3.449,6.606,7.23,6.606a6.9,6.9,0,0,0,6.4-3.739h.083s-.041.375-.041.914c0,1.247.748,2.327,2.7,2.327h4.738v-4.446ZM441.04,249.6c0,2.575-1.995,5.567-4.821,5.567-2.16,0-3.2-1.33-3.2-2.742,0-2.95,4.363-3.324,7.106-3.324h.914Z" transform="translate(22.348 1.866)" fill="#00195b"/>
    <path id="Path_48" data-name="Path 48" d="M457.324,238.956a7.534,7.534,0,0,0-6.358,2.95h-.083s.083-.748.083-1.787V233.97c0-1.954-.872-2.826-2.825-2.826h-5.028v4.488h1.662a.813.813,0,0,1,.914.913v24.1h4.986v-1.08a10.941,10.941,0,0,0-.084-1.414h.084a7.559,7.559,0,0,0,6.316,2.992c5.609,0,9.723-4.362,9.723-11.095C466.714,243.485,463.058,238.956,457.324,238.956ZM456.077,256.7c-3.532,0-5.277-3.24-5.277-6.523,0-4.695,2.575-6.689,5.319-6.689,3.115,0,5.277,2.617,5.277,6.648C461.4,254.33,458.944,256.7,456.077,256.7Z" transform="translate(27.186 0)" fill="#00195b"/>
    <path id="Path_49" data-name="Path 49" d="M465.086,252.049s2.7,3.115,6.316,3.115c1.621,0,2.867-.665,2.867-2.077,0-2.992-11.177-2.95-11.177-9.806,0-4.239,3.823-6.191,8.228-6.191,2.867,0,7.438.955,7.438,4.4v2.2H474.1v-1.039c0-1-1.5-1.5-2.659-1.5-1.87,0-3.159.665-3.159,1.912,0,3.324,11.261,2.659,11.261,9.723,0,3.989-3.532,6.481-8.145,6.481a11.618,11.618,0,0,1-8.808-3.781Z" transform="translate(33.301 1.866)" fill="#00195b"/>
  </g>
</svg>
